<svg xmlns="http://www.w3.org/2000/svg" viewBox="0 0 512 512">
  <rect width="512" height="512" rx="80" fill="#0D0B09"/>
  <rect x="120" y="100" width="180" height="240" rx="12" fill="#C8964A" opacity="0.9"/>
  <rect x="140" y="120" width="140" height="200" rx="8" fill="#1C1916"/>
  <rect x="160" y="150" width="100" height="3" rx="2" fill="#C8964A" opacity="0.6"/>
  <rect x="160" y="165" width="80" height="3" rx="2" fill="#C8964A" opacity="0.4"/>
  <rect x="160" y="180" width="90" height="3" rx="2" fill="#C8964A" opacity="0.4"/>
  <rect x="160" y="195" width="70" height="3" rx="2" fill="#C8964A" opacity="0.4"/>
  <rect x="220" y="110" width="160" height="230" rx="12" fill="#A07840" opacity="0.85"/>
  <rect x="238" y="128" width="124" height="196" rx="8" fill="#141210"/>
  <rect x="255" y="158" width="90" height="3" rx="2" fill="#C8964A" opacity="0.6"/>
  <rect x="255" y="173" width="70" height="3" rx="2" fill="#C8964A" opacity="0.4"/>
  <rect x="255" y="188" width="80" height="3" rx="2" fill="#C8964A" opacity="0.4"/>
  <text x="256" y="360" font-family="Georgia,serif" font-size="52" font-weight="bold" fill="#C8964A" text-anchor="middle" letter-spacing="2">BV</text>
  <text x="256" y="400" font-family="Georgia,serif" font-size="22" fill="#6A5E50" text-anchor="middle" letter-spacing="4">VAULT</text>
</svg>
